<svg width="148" height="67" viewBox="0 0 148 67" fill="none" xmlns="http://www.w3.org/2000/svg">
<path d="M5.21664 42.7387V30.8158C5.21664 29.6818 5.89702 29.1634 6.7718 29.1634C7.61418 29.1634 8.16497 29.7142 8.16497 31.2694V42.7387H12.0529V30.8158C12.0529 29.6818 12.7333 29.1634 13.5432 29.1634C14.418 29.1634 15.0012 29.7142 15.0012 31.2694V42.7387H18.8567V30.7834C18.8567 27.3491 17.6903 25.6319 15.3576 25.6319C13.284 25.6319 12.3445 26.9603 11.7937 28.4831H11.5993C11.2429 26.6363 10.2061 25.6319 8.61856 25.6319C6.8366 25.6319 5.96182 26.9279 5.44344 28.4831H5.21664V26.0207H1.36114V42.7387H5.21664ZM38.3484 42.7387V39.272H36.5016V31.9498C36.5016 27.7379 33.7801 25.6319 29.2118 25.6319C25.4859 25.6319 23.0559 27.0251 21.9544 28.9042L24.5787 31.237C25.4859 30.0058 26.6523 29.131 28.661 29.131C30.8642 29.131 31.7065 30.1678 31.7065 32.1442V32.9865H29.0174C24.1251 32.9865 21.5008 34.6389 21.5008 38.138C21.5008 41.2807 23.6391 43.1275 26.8791 43.1275C29.4386 43.1275 31.3825 41.9611 31.9657 39.7904H32.1277C32.3221 41.6695 33.6181 42.7387 35.5944 42.7387H38.3484ZM28.6934 39.9848C27.1706 39.9848 26.1987 39.3692 26.1987 38.2028V37.5548C26.1987 36.2589 27.2354 35.5785 29.147 35.5785H31.7065V37.5872C31.7065 39.1424 30.3782 39.9848 28.6934 39.9848ZM41.6404 42.7387H55.7989V39.0128H50.291V34.0557C50.291 32.047 51.5222 30.427 53.8873 30.427H57.4512V26.0207H55.8637C52.559 26.0207 51.1334 28.2887 50.5178 30.751H50.291V26.0207H41.6404V29.7466H45.4959V39.0128H41.6404V42.7387ZM60.7757 42.7387H65.5708V36.9393L67.1583 35.3517L72.0182 42.7387H77.7205L70.5603 32.6302L77.0401 26.0207H71.5322L68.0331 29.7466L65.7976 32.371H65.5708V18.7633H60.7757V42.7387Z" fill="black"/>
<path d="M147.03 13.28V53.98C147.03 60.83 141.48 66.39 134.62 66.39H93.6299C86.7799 66.39 81.22 60.84 81.22 53.98V12.99C81.22 6.13999 86.7699 0.580017 93.6299 0.580017H134.33V13.28C134.33 13.28 146.87 13.44 147.03 13.28Z" fill="#231F20"/>
<path d="M98.9201 42.7387H103.715V18.7633H98.9201V29.0662H98.6933C97.851 27.0575 96.4254 25.6319 93.7363 25.6319C90.0428 25.6319 87.4508 28.3211 87.4508 34.3797C87.4508 40.4384 90.0428 43.1275 93.7363 43.1275C96.4254 43.1275 97.851 41.7019 98.6933 39.6932H98.9201V42.7387ZM95.8098 39.4016C93.6715 39.4016 92.4403 38.0084 92.4403 35.6757V33.0837C92.4403 30.751 93.6715 29.3578 95.8098 29.3578C97.4946 29.3578 98.9201 30.1678 98.9201 31.9174V36.8421C98.9201 38.5916 97.4946 39.4016 95.8098 39.4016ZM115.334 43.1275C120.55 43.1275 123.725 39.7904 123.725 34.3797C123.725 28.969 120.55 25.6319 115.334 25.6319C110.118 25.6319 106.942 28.969 106.942 34.3797C106.942 39.7904 110.118 43.1275 115.334 43.1275ZM115.334 39.5636C113.196 39.5636 111.9 38.1704 111.9 35.7081V33.0513C111.9 30.589 113.196 29.1958 115.334 29.1958C117.472 29.1958 118.768 30.589 118.768 33.0513V35.7081C118.768 38.1704 117.472 39.5636 115.334 39.5636ZM135.441 43.1275C139.167 43.1275 141.435 41.4751 142.634 39.0452L139.005 36.9717C138.292 38.3324 137.32 39.3044 135.474 39.3044C133.206 39.3044 131.974 37.9436 131.974 35.7405V33.0189C131.974 30.8158 133.238 29.455 135.409 29.455C137.191 29.455 138.098 30.427 138.681 31.723L142.375 29.7142C141.208 27.2843 139.07 25.6319 135.409 25.6319C130.192 25.6319 126.985 28.969 126.985 34.3797C126.985 39.7904 130.16 43.1275 135.441 43.1275Z" fill="white"/>
</svg>
